<?xml version="1.0" encoding="UTF-8"?>
<svg version="1.1" xmlns="http://www.w3.org/2000/svg" width="2000" height="510">
<path d="M0 0 C0.55655273 0.45648926 1.11310547 0.91297852 1.68652344 1.38330078 C8.08229483 6.64144897 14.27017909 12.01233715 20 18 C22.40393064 20.42350662 24.81904582 22.8273833 27.2890625 25.18359375 C70.50813768 66.88494221 94.97689536 130.90440511 96.203125 190.2578125 C96.22921481 192.88075254 96.24767472 195.50208901 96.25 198.125 C96.25067474 198.81875732 96.25134949 199.51251465 96.25204468 200.22729492 C96.19397425 238.24768349 87.87258286 275.84668872 71 310 C70.61730957 310.77778809 70.23461914 311.55557617 69.84033203 312.35693359 C64.3213899 323.4548789 58.20311422 333.91617012 51 344 C50.31599121 344.96800537 50.31599121 344.96800537 49.61816406 345.95556641 C40.80638354 358.35072371 30.74711282 369.27039062 20 380 C19.20722656 380.82757813 18.41445313 381.65515625 17.59765625 382.5078125 C-16.93736092 418.16029556 -66.37203048 441.25863241 -115 449 C-116.00353516 449.16081055 -117.00707031 449.32162109 -118.04101562 449.48730469 C-182.83321704 459.38781436 -251.10919659 444.31112643 -304.26977539 405.52148438 C-312.11797986 399.67589931 -319.66212079 393.4718897 -327 387 C-327.53141602 386.53174805 -328.06283203 386.06349609 -328.61035156 385.58105469 C-334.0749964 380.73716709 -339.43117364 375.86269687 -344.12109375 370.24609375 C-345.58025185 368.50177793 -347.08099487 366.79221174 -348.59765625 365.09765625 C-362.97428948 348.96996072 -374.16353437 331.18409326 -384 312 C-384.37318359 311.29407715 -384.74636719 310.5881543 -385.13085938 309.86083984 C-414.86753504 253.4699488 -417.38879184 182.69284801 -399.06640625 122.46875 C-387.80121776 87.37213459 -369.26916126 56.51656504 -345 29 C-344.53174805 28.46858398 -344.06349609 27.93716797 -343.58105469 27.38964844 C-338.73716709 21.9250036 -333.86269687 16.56882636 -328.24609375 11.87890625 C-326.50177793 10.41974815 -324.79221174 8.91900513 -323.09765625 7.40234375 C-251.43297453 -56.4813551 -145.17864768 -71.19045524 0 0 Z M-166.44238281 -28.87548828 C-212.84051801 -26.29964289 -256.90143663 -11.16655257 -294 17 C-294.87785156 17.66515625 -295.75570312 18.3303125 -296.66015625 19.015625 C-303.44298598 24.30429731 -309.76473119 30.08570785 -316 36 C-316.50321777 36.47453613 -317.00643555 36.94907227 -317.52490234 37.43798828 C-325.52459795 45.03113777 -332.40879895 53.16823378 -339 62 C-339.62189209 62.81476807 -339.62189209 62.81476807 -340.25634766 63.64599609 C-376.37214686 111.01309064 -390.06459652 171.37359923 -383 230 C-376.52606158 277.96227334 -354.54023031 322.87113597 -320.60791016 357.36132812 C-319.11083007 358.88704959 -317.63686739 360.43158396 -316.16796875 361.984375 C-309.31381786 369.08940989 -301.8813631 375.09986354 -294 381 C-293.45537109 381.41604492 -292.91074219 381.83208984 -292.34960938 382.26074219 C-245.26861695 418.15501755 -184.37208684 432.66939248 -126 425 C-63.15023871 415.24913034 -8.66100107 382.16083353 28.90722656 330.82714844 C37.20833029 319.26842867 44.00064887 306.88793415 50 294 C50.50080078 292.92588867 50.50080078 292.92588867 51.01171875 291.83007812 C75.72459368 238.00145975 77.05984958 175.38545558 56.88183594 119.92675781 C37.53762567 69.12198874 1.26640977 26.85705502 -46 0 C-46.57621094 -0.33596191 -47.15242188 -0.67192383 -47.74609375 -1.01806641 C-82.76861082 -21.37837891 -126.11771444 -30.93122407 -166.44238281 -28.87548828 Z " fill="#251E1F" transform="translate(411,56)"/>
<path d="M0 0 C9.24 0 18.48 0 28 0 C31.707561 25.35789911 35.11933237 50.74854241 38.39428711 76.16577148 C39.05868996 81.32092195 39.72910413 86.47527173 40.40098095 91.62945271 C40.92982758 95.69346677 41.45480205 99.75797457 41.97875404 103.8226223 C42.22417262 105.72208854 42.47086267 107.62139108 42.71901512 109.52050209 C44.02736494 119.54625982 45.21437041 129.5748265 46.1652832 139.64135742 C46.25054103 140.51645871 46.33579885 141.39156 46.42364025 142.29317951 C46.98772617 148.54055181 47.09011273 154.72928631 47 161 C47.66 161 48.32 161 49 161 C49.11230957 159.90171875 49.22461914 158.8034375 49.34033203 157.671875 C50.00021738 152.42612412 51.26395772 147.37104582 52.5546875 142.25 C52.81228851 141.21422821 53.06988953 140.17845642 53.33529663 139.11129761 C54.17629173 135.73944219 55.02507273 132.36961418 55.875 129 C56.16290405 127.85259338 56.45080811 126.70518677 56.74743652 125.52301025 C60.74680213 109.59402443 64.88543331 93.70789811 69.25 77.875 C69.4858783 77.01825684 69.72175659 76.16151367 69.96478271 75.27880859 C70.62408355 72.89061655 71.28733787 70.50357858 71.953125 68.1171875 C72.14732025 67.41761932 72.3415155 66.71805115 72.54159546 65.99728394 C73.88137928 61.23724145 73.88137928 61.23724145 75 59 C83.58 59 92.16 59 101 59 C103.84484981 69.12180079 106.67843367 79.24668524 109.5 89.375 C109.70708965 90.11821125 109.91417931 90.8614225 110.1275444 91.6271553 C116.04372737 112.87202227 121.79437845 134.11680078 126.43774414 155.68334961 C126.91021223 158.0067926 126.91021223 158.0067926 128 160 C128.11317062 158.85490967 128.22634125 157.70981934 128.34294128 156.5300293 C131.65340166 123.21332472 135.62135662 89.99878767 139.83319092 56.78515625 C140.64846669 50.34683432 141.45771599 43.90775473 142.26757812 37.46875 C143.83938756 24.97844604 145.41805269 12.48902401 147 0 C156.24 0 165.48 0 175 0 C173.85125712 13.78491455 173.85125712 13.78491455 172.82348633 20.2318573 C172.708998 20.9723607 172.59450968 21.71286411 172.47655201 22.47580701 C172.09906843 24.91054229 171.71559267 27.34429162 171.33203125 29.77807617 C171.05729393 31.54169297 170.78292056 33.3053665 170.50888062 35.0690918 C169.76907376 39.82305685 169.0239193 44.57616886 168.27752304 49.32910323 C167.49598093 54.31033105 166.71866479 59.29221863 165.94067383 64.27400208 C164.63571475 72.62561428 163.32718672 80.97666153 162.01660156 89.32739258 C160.4999586 98.99141662 158.98940122 108.65637755 157.48195744 118.32184047 C156.03072793 127.6257498 154.5748847 136.92893171 153.11703491 146.2318058 C152.49665244 150.19128521 151.87797027 154.15102484 151.26065063 158.11098289 C150.53550354 162.76142887 149.80636025 167.41123056 149.07405472 172.0605545 C148.80534986 173.77084239 148.53806255 175.48135365 148.27225876 177.1920948 C147.91079868 179.51699881 147.54433337 181.84105777 147.17651367 184.16496277 C146.97225266 185.46846271 146.76799164 186.77196264 146.55754089 188.11496258 C146 191 146 191 145 192 C142.78144736 192.08783542 140.56011504 192.10694609 138.33984375 192.09765625 C137.34314415 192.09553383 137.34314415 192.09553383 136.3263092 192.09336853 C134.19666101 192.08775518 132.06711661 192.07520054 129.9375 192.0625 C128.49674631 192.05748671 127.05599097 192.05292351 125.61523438 192.04882812 C122.07678611 192.03863087 118.5384077 192.01967138 115 192 C112.00603 182.54981139 109.3393621 173.03728537 106.8125 163.453125 C106.4243949 161.98781165 106.03612632 160.52254159 105.64770508 159.05731201 C104.83930432 156.00544595 104.03273493 152.95310377 103.22753906 149.90039062 C102.20908691 146.03968042 101.18623907 142.18015156 100.16200256 138.32097244 C99.36059454 135.29947332 98.56149032 132.27736835 97.76303101 129.25508881 C97.38742368 127.83434251 97.01117151 126.41376649 96.63418579 124.99338531 C94.58961335 117.28429187 92.61074373 109.56045824 90.73828125 101.80761719 C90.56362839 101.10077412 90.38897552 100.39393105 90.20903015 99.66566849 C89.3472782 96.04157107 88.79871692 92.72769487 89 89 C88.34 89 87.68 89 87 89 C86.88172852 90.12140381 86.76345703 91.24280762 86.64160156 92.39819336 C86.03265197 97.24053662 84.92305386 101.90036767 83.734375 106.62890625 C83.38947021 108.02054237 83.38947021 108.02054237 83.03759766 109.44029236 C82.28085534 112.48250786 81.51603199 115.5226113 80.75 118.5625 C80.48932739 119.60325684 80.22865479 120.64401367 79.96008301 121.71630859 C74.05629547 145.25964742 67.58351297 168.63914753 61 192 C50.77 192 40.54 192 30 192 C27.85195988 180.80893309 25.93003916 169.60973899 24.1809082 158.3503418 C23.9146616 156.64840583 23.64820633 154.94650249 23.38156128 153.24462891 C22.66668124 148.67769128 21.95484511 144.11028431 21.24373269 139.5427587 C20.4965239 134.74602966 19.74686842 129.94968288 18.99760437 125.15327454 C17.74266421 117.11718523 16.48975456 109.08078132 15.23803711 101.04418945 C13.79065169 91.75151171 12.33983161 82.45937497 10.88725215 73.16750783 C9.48678197 64.20836431 8.0888786 55.24882207 6.69209862 46.28910255 C6.09847142 42.48161148 5.50391048 38.67426796 4.90859413 34.86704063 C4.20964563 30.39637407 3.51292914 25.92536533 2.81795883 21.45407867 C2.56235737 19.81200497 2.30597348 18.17005285 2.04876137 16.52823067 C1.69867616 14.29275829 1.35139241 12.05686845 1.00483704 9.82084656 C0.80962621 8.56863154 0.61441538 7.31641653 0.41328907 6.02625561 C0 3 0 3 0 0 Z " fill="#000000" transform="translate(1320,56)"/>
<path d="M0 0 C14.88375241 10.91299867 19.75349087 28.39169188 22.59790039 45.86499023 C23.65055807 53.23664935 23.65743714 60.62643643 23.60205078 68.05957031 C23.58594638 70.61968215 23.60201799 73.17821621 23.62109375 75.73828125 C23.65094702 98.68113716 19.62346047 122.27682585 3.3828125 139.5859375 C-7.5185716 149.80108339 -22.44082212 152.37627521 -36.90625 151.9375 C-52.66352798 150.65345622 -65.41222069 145.83598601 -75.7890625 133.62109375 C-76.4490625 132.63109375 -77.1090625 131.64109375 -77.7890625 130.62109375 C-78.1190625 156.36109375 -78.4490625 182.10109375 -78.7890625 208.62109375 C-87.6990625 208.62109375 -96.6090625 208.62109375 -105.7890625 208.62109375 C-106.1190625 138.00109375 -106.4490625 67.38109375 -106.7890625 -5.37890625 C-98.2090625 -5.37890625 -89.6290625 -5.37890625 -80.7890625 -5.37890625 C-80.13858332 -2.12651035 -79.64554292 0.59267445 -79.47265625 3.828125 C-79.43076172 4.57900391 -79.38886719 5.32988281 -79.34570312 6.10351562 C-79.30638672 6.87244141 -79.26707031 7.64136719 -79.2265625 8.43359375 C-79.18337891 9.22185547 -79.14019531 10.01011719 -79.09570312 10.82226562 C-78.99027929 12.7550359 -78.88923156 14.68804401 -78.7890625 16.62109375 C-78.11810547 15.62529297 -78.11810547 15.62529297 -77.43359375 14.609375 C-71.56267037 6.03457219 -65.62966492 -1.0874892 -55.7890625 -5.06640625 C-54.7784375 -5.48277344 -53.7678125 -5.89914063 -52.7265625 -6.328125 C-36.01827843 -12.30489151 -14.71053934 -9.54518815 0 0 Z M-68.0390625 24.24609375 C-81.47774412 44.0132404 -81.9217152 74.83944292 -77.6015625 97.80859375 C-75.07184678 108.53646227 -71.51356312 118.42669105 -62.7890625 125.62109375 C-52.56796113 131.59893284 -41.37888876 133.43062568 -29.7109375 130.97265625 C-21.45390877 128.2741301 -15.28707482 123.8428887 -11.0390625 116.18359375 C0.13235267 91.50080483 0.39651864 56.0328624 -9.0390625 30.93359375 C-12.74007451 23.01076864 -17.78154518 17.21067048 -25.7890625 13.62109375 C-40.69961638 8.85190924 -57.80837087 11.75634077 -68.0390625 24.24609375 Z M-79.7890625 126.62109375 C-78.7890625 128.62109375 -78.7890625 128.62109375 -78.7890625 128.62109375 Z " fill="#000000" transform="translate(1277.7890625,99.37890625)"/>
<path d="M0 0 C17.41090314 15.04386193 23.09698643 34.4643675 25.1484375 56.859375 C25.1484375 62.469375 25.1484375 68.079375 25.1484375 73.859375 C-10.8215625 73.859375 -46.7915625 73.859375 -83.8515625 73.859375 C-81.80447907 92.28312586 -79.92663819 107.94615836 -65.28515625 120.16796875 C-55.40474642 127.03509147 -43.46962513 128.17359053 -31.8515625 126.109375 C-21.55485632 123.78535354 -11.80116493 119.8389345 -5.9140625 110.671875 C-4.57458821 108.36979546 -3.70149056 106.40915918 -2.8515625 103.859375 C14.041376 107.89809937 14.041376 107.89809937 21.1484375 110.859375 C16.64358654 124.78884837 7.71115726 133.74146309 -5.0703125 140.58203125 C-25.24614802 149.99896366 -49.03643667 150.46508802 -70.12890625 143.828125 C-86.46467025 137.60497681 -97.92508997 125.77207584 -105.125 110.10546875 C-110.95099882 96.46833934 -112.08926787 82.07811445 -112.1015625 67.421875 C-112.10223724 66.7031723 -112.10291199 65.9844696 -112.10360718 65.24398804 C-112.07101732 43.44015582 -108.22954271 21.53997555 -92.6015625 5.046875 C-68.95004905 -17.08132064 -26.01516408 -19.52919166 0 0 Z M-74.5390625 21.921875 C-81.75287933 31.77690623 -82.91161488 40.64005588 -83.8515625 52.859375 C-57.1215625 52.859375 -30.3915625 52.859375 -2.8515625 52.859375 C-2.8515625 39.87212902 -6.77238598 29.26046078 -14.0390625 18.671875 C-21.30900696 11.40193054 -30.05335341 7.68398333 -40.30908203 7.47900391 C-54.48341639 7.51221321 -65.10951914 10.84976602 -74.5390625 21.921875 Z " fill="#000000" transform="translate(1973.8515625,103.140625)"/>
<path d="M0 0 C121.77 0 243.54 0 369 0 C369 8.25 369 16.5 369 25 C247.23 25 125.46 25 0 25 C0 16.75 0 8.5 0 0 Z " fill="#251E1F" transform="translate(1630,410)"/>
<path d="M0 0 C121.77 0 243.54 0 369 0 C369 8.25 369 16.5 369 25 C247.23 25 125.46 25 0 25 C0 16.75 0 8.5 0 0 Z " fill="#251E1F" transform="translate(634,410)"/>
<path d="M0 0 C5.71812602 5.91445653 10.0078125 13.88045663 10.0078125 22.1953125 C2.02702165 23.84265009 -5.86112889 24.70408797 -13.9921875 25.1953125 C-14.19972656 24.54304688 -14.40726563 23.89078125 -14.62109375 23.21875 C-16.84582542 16.90758652 -19.1535624 12.66630616 -24.9921875 9.1953125 C-38.69201102 2.93676003 -55.92124266 3.80797442 -69.9921875 8.1953125 C-75.07264508 10.4593449 -78.71039993 12.96062336 -80.9921875 18.1953125 C-82.82141676 23.18411957 -82.60969877 28.36540219 -80.6171875 33.2578125 C-76.58541206 40.28131082 -68.83529526 43.14746808 -61.375 45.3203125 C-58.95951035 45.95977018 -56.54002528 46.58428596 -54.1171875 47.1953125 C-52.18258809 47.70676113 -50.24799045 48.21822186 -48.31413269 48.73246765 C-46.40099501 49.2402312 -44.48639196 49.74246309 -42.57177734 50.24462891 C-9.35014867 59.06777869 -9.35014867 59.06777869 1.0078125 68.1953125 C1.63558594 68.741875 2.26335937 69.2884375 2.91015625 69.8515625 C9.96102071 76.41050618 13.45328399 84.34639902 14.23046875 93.9453125 C14.60892988 106.58262331 11.55995482 117.76685485 3.109375 127.34765625 C-12.57058934 142.53215703 -33.9244166 144.5568107 -54.65234375 144.34765625 C-71.66917759 143.98264351 -89.39936072 140.70727644 -102.3671875 128.91015625 C-108.02565783 122.9388378 -113.9921875 113.68974617 -113.9921875 105.1953125 C-111.11885569 104.52065178 -108.24387268 103.8553891 -105.3671875 103.1953125 C-104.55894531 103.00453125 -103.75070312 102.81375 -102.91796875 102.6171875 C-98.52014581 101.61605707 -94.53657711 100.9600043 -89.9921875 101.1953125 C-89.64027344 101.99195313 -89.28835938 102.78859375 -88.92578125 103.609375 C-85.43814391 111.09459142 -82.47188758 116.93527253 -74.60546875 120.1796875 C-59.7141054 125.01424957 -40.8488644 125.1930908 -25.9921875 120.1953125 C-23.10200169 118.71722661 -20.64695789 117.08428374 -17.9921875 115.1953125 C-17.3321875 115.1953125 -16.6721875 115.1953125 -15.9921875 115.1953125 C-15.7034375 114.4734375 -15.4146875 113.7515625 -15.1171875 113.0078125 C-13.9921875 110.1953125 -13.9921875 110.1953125 -12.8671875 107.9453125 C-11.14626728 102.53670609 -11.22183412 97.27036714 -13.4296875 92.0078125 C-18.83892719 82.60692698 -30.20935595 79.9228744 -39.9921875 77.1953125 C-44.30168488 76.04147529 -48.61702053 74.91032443 -52.93289185 73.78063965 C-93.62126922 63.12707664 -93.62126922 63.12707664 -102.9921875 49.1953125 C-109.00153376 38.51406595 -109.17145557 25.82600172 -105.9921875 14.1953125 C-101.99472309 2.82177359 -94.09815071 -4.39877712 -83.36645508 -9.55004883 C-57.79166959 -21.0599059 -21.18136552 -19.18782524 0 0 Z " fill="#000000" transform="translate(1805.9921875,106.8046875)"/>
<path d="M0 0 C50.49 0 100.98 0 153 0 C153 7.59 153 15.18 153 23 C132.54 23 112.08 23 91 23 C91 78.77 91 134.54 91 192 C81.76 192 72.52 192 63 192 C63 136.23 63 80.46 63 23 C42.21 23 21.42 23 0 23 C0 15.41 0 7.82 0 0 Z " fill="#000000" transform="translate(634,56)"/>
<path d="M0 0 C23.76 0 47.52 0 72 0 C72 43.89 72 87.78 72 133 C89.82 133 107.64 133 126 133 C126 139.93 126 146.86 126 154 C79.8 154 33.6 154 -14 154 C-14 147.07 -14 140.14 -14 133 C5.47 133 24.94 133 45 133 C45 96.04 45 59.08 45 21 C30.15 21 15.3 21 0 21 C0 14.07 0 7.14 0 0 Z " fill="#000000" transform="translate(1529,94)"/>
<path d="M0 0 C23.76 0 47.52 0 72 0 C72 43.89 72 87.78 72 133 C89.82 133 107.64 133 126 133 C126 139.93 126 146.86 126 154 C79.8 154 33.6 154 -14 154 C-14 147.07 -14 140.14 -14 133 C5.8 133 25.6 133 46 133 C46 96.04 46 59.08 46 21 C30.82 21 15.64 21 0 21 C0 14.07 0 7.14 0 0 Z " fill="#000000" transform="translate(1006,94)"/>
<path d="M0 0 C1.10851318 -0.00064453 2.21702637 -0.00128906 3.35913086 -0.00195312 C11.79276588 0.0521047 19.75235704 0.78789697 28.0625 2.1875 C28.0625 10.4375 28.0625 18.6875 28.0625 27.1875 C24.741875 26.8575 21.42125 26.5275 18 26.1875 C-1.44721003 24.39217421 -18.59220474 23.79295606 -34.5 36.6875 C-45.35828818 46.78646733 -51.50602033 61.41960835 -52.09571838 76.13595581 C-52.11617351 77.64770927 -52.13156912 79.15953676 -52.14282227 80.67138672 C-52.15272186 81.50131638 -52.16262146 82.33124603 -52.17282104 83.18632507 C-52.20425812 85.91325079 -52.22912268 88.64019389 -52.25390625 91.3671875 C-52.27449116 93.26433754 -52.29548803 95.16148315 -52.31687927 97.05862427 C-52.37194119 102.03979902 -52.4214202 107.02101407 -52.46972656 112.0022583 C-52.52005787 117.09008347 -52.5756831 122.17785048 -52.63085938 127.265625 C-52.73824661 137.23953538 -52.83924484 147.21349547 -52.9375 157.1875 C-61.8475 157.1875 -70.7575 157.1875 -79.9375 157.1875 C-79.95208252 153.91513428 -79.96666504 150.64276855 -79.98168945 147.27124023 C-80.03238144 136.37080896 -80.09903375 125.4705154 -80.17321491 114.57021999 C-80.21764458 107.97154943 -80.25695852 101.37293674 -80.28393555 94.77416992 C-80.31024512 88.38734438 -80.3508353 82.00074495 -80.40068626 75.61406136 C-80.41717035 73.19648142 -80.42879794 70.77886255 -80.43511391 68.36123466 C-80.49196998 48.56940604 -82.11366302 29.4000541 -86.38671875 10.05078125 C-86.9375 7.1875 -86.9375 7.1875 -86.9375 3.1875 C-78.6875 3.1875 -70.4375 3.1875 -61.9375 3.1875 C-55.50892857 24.83035714 -55.50892857 24.83035714 -55.9375 36.1875 C-55.2775 36.1875 -54.6175 36.1875 -53.9375 36.1875 C-53.67066406 35.31738281 -53.40382813 34.44726562 -53.12890625 33.55078125 C-48.83771442 21.43695777 -40.74746101 11.02434763 -29.19921875 5.1796875 C-19.4926372 0.92153255 -10.53097883 -0.00627264 0 0 Z " fill="#000000" transform="translate(918.9375,90.8125)"/>
<path d="M0 0 C-0.40815886 5.97050988 -3.10512713 9.83826363 -6.3125 14.6875 C-7.41690092 16.3956819 -8.52106117 18.10401942 -9.625 19.8125 C-10.47191406 21.111875 -10.47191406 21.111875 -11.3359375 22.4375 C-13.86452941 26.33129411 -16.33858339 30.25883155 -18.8125 34.1875 C-19.29887939 34.95731201 -19.78525879 35.72712402 -20.28637695 36.52026367 C-24.37908065 43.00010295 -28.4412757 49.49883933 -32.5 56 C-39.43985507 67.11608218 -46.42949272 78.19988429 -53.43847656 89.27246094 C-54.89701939 91.57713611 -56.3549614 93.88218961 -57.8125 96.1875 C-58.29928223 96.95731201 -58.78606445 97.72712402 -59.28759766 98.52026367 C-62.75353024 104.00845747 -66.19384775 109.51227799 -69.62744141 115.02075195 C-76.31517695 125.7493108 -83.08381659 136.41723286 -90 147 C-94.54436923 146.46112208 -97.74902158 145.29709584 -101.703125 143.015625 C-102.76660156 142.40976563 -103.83007812 141.80390625 -104.92578125 141.1796875 C-106.02277344 140.54289063 -107.11976563 139.90609375 -108.25 139.25 C-115.73827191 134.94803688 -123.21896575 130.75289636 -131 127 C-131.40089844 127.37584229 -131.80179687 127.75168457 -132.21484375 128.13891602 C-133.43586224 129.28362085 -134.65689203 130.42831365 -135.87792969 131.57299805 C-137.30574509 132.91161605 -138.733478 134.25032206 -140.16113281 135.58911133 C-143.93363765 139.12655756 -147.70747163 142.66256251 -151.484375 146.1953125 C-152.19980469 146.8648999 -152.91523438 147.5344873 -153.65234375 148.22436523 C-155.02423131 149.50827444 -156.39660731 150.79166198 -157.76953125 152.07446289 C-158.71119141 152.95606079 -158.71119141 152.95606079 -159.671875 153.85546875 C-160.55262695 154.67217041 -160.55262695 154.67217041 -161.45117188 155.50537109 C-163.14969787 157.0972482 -163.14969787 157.0972482 -165.078125 159.42578125 C-167.72539821 161.5941778 -169.668433 161.11382007 -173 161 C-173.43243962 154.09927414 -173.85903189 147.19820385 -174.28173828 140.296875 C-174.42592903 137.95369462 -174.57141261 135.6105934 -174.71826172 133.26757812 C-174.93023865 129.88171526 -175.1374206 126.49558617 -175.34375 123.109375 C-175.40937134 122.07762146 -175.47499268 121.04586792 -175.54260254 119.98284912 C-175.96311312 112.98068523 -176.07358023 106.01406464 -176 99 C-176.77021484 98.69857086 -177.54042969 98.39714172 -178.33398438 98.08657837 C-181.19480719 96.92060313 -183.80433651 95.53187969 -186.5 94.0234375 C-187.54671875 93.43868652 -188.5934375 92.85393555 -189.671875 92.25146484 C-191.31929687 91.32261475 -191.31929687 91.32261475 -193 90.375 C-194.11890625 89.74416504 -195.2378125 89.11333008 -196.390625 88.46337891 C-199.59751669 86.64878162 -202.79976753 84.82631068 -206 83 C-206.79921875 82.54625 -207.5984375 82.0925 -208.421875 81.625 C-210.29086502 80.5570057 -212.14808319 79.47224976 -214 78.375 C-215.4540625 77.52035156 -215.4540625 77.52035156 -216.9375 76.6484375 C-219.30928308 74.75280784 -219.43719539 73.87696832 -220 71 C-214.19589963 68.31272013 -208.38798622 65.99100449 -202.30712891 64.01416016 C-201.48731033 63.74345703 -200.66749176 63.47275391 -199.8228302 63.19384766 C-197.12552223 62.30444945 -194.42608645 61.42170953 -191.7265625 60.5390625 C-189.80206707 59.90610039 -187.87770254 59.27274016 -185.95346069 58.63900757 C-180.87176785 56.96666525 -175.78821967 55.30003305 -170.70428467 53.63452148 C-165.69748664 51.99307851 -160.69261012 50.34579962 -155.6875 48.69921875 C-134.53335423 41.74324992 -113.36478756 34.83195288 -92.18815613 27.94477844 C-81.3900511 24.43250882 -70.59638166 20.9071132 -59.80859375 17.36328125 C-58.82817108 17.04128124 -58.82817108 17.04128124 -57.82794189 16.71277618 C-52.03631315 14.81055753 -46.24505798 12.90720398 -40.4543457 11.00219727 C-37.82298929 10.1366011 -35.19140772 9.27169555 -32.55958557 8.40751648 C-30.1495177 7.61610833 -27.73977108 6.82372083 -25.33042908 6.03010559 C-20.37290459 4.40313625 -15.41073369 2.79265934 -10.42602539 1.25073242 C-9.6555336 1.01215012 -8.88504181 0.77356781 -8.09120178 0.52775574 C-5.35558383 -0.16263105 -2.80385707 -0.22135714 0 0 Z M-20.48168945 11.02172852 C-21.47172297 11.34743568 -21.47172297 11.34743568 -22.48175716 11.67972279 C-24.6936769 12.40858148 -26.90344074 13.14376984 -29.11328125 13.87890625 C-30.68824256 14.39921447 -32.26333929 14.91911289 -33.83856201 15.43862915 C-37.22282489 16.55568562 -40.60615986 17.67549425 -43.98880005 18.79745483 C-49.34776533 20.57487537 -54.7087284 22.34621237 -60.07006836 24.11645508 C-66.51665637 26.24540723 -72.96282416 28.37562153 -79.4084177 30.50758266 C-95.55889193 35.84922704 -111.71851927 41.16290653 -127.88014603 46.4706955 C-130.05930325 47.18645001 -132.23838927 47.90242085 -134.41744995 48.61846924 C-159.26590005 56.7837085 -184.12656563 64.91115758 -209 73 C-205.36575668 76.05076583 -201.64147083 78.49647398 -197.52734375 80.85546875 C-196.92241592 81.20257401 -196.3174881 81.54967926 -195.69422913 81.90730286 C-194.42391811 82.63459001 -193.1523667 83.35971455 -191.87963867 84.08276367 C-189.93597467 85.18836764 -187.99811152 86.30367085 -186.06054688 87.41992188 C-184.8206489 88.12819339 -183.5804255 88.83589559 -182.33984375 89.54296875 C-180.65942993 90.5023938 -180.65942993 90.5023938 -178.94506836 91.48120117 C-175.61120376 93.28193507 -175.61120376 93.28193507 -172 94 C-169.32574332 93.11615104 -169.32574332 93.11615104 -166.51171875 91.640625 C-165.42487793 91.10751709 -164.33803711 90.57440918 -163.21826172 90.02514648 C-162.05311035 89.43934814 -160.88795898 88.8535498 -159.6875 88.25 C-158.46693447 87.64724982 -157.24573424 87.04578334 -156.02392578 86.44555664 C-153.53521374 85.22187445 -151.04917275 83.99300536 -148.56494141 82.76025391 C-143.52426652 80.27133007 -138.45179442 77.85164313 -133.375 75.4375 C-131.49978902 74.54210839 -129.62479031 73.64627208 -127.75 72.75 C-126.81414062 72.30269531 -125.87828125 71.85539062 -124.9140625 71.39453125 C-120.79473615 69.42321824 -116.67825598 67.44600077 -112.56201172 65.46826172 C-109.41972463 63.9589818 -106.27630736 62.45207493 -103.1328125 60.9453125 C-99.05994905 58.99225104 -94.99296792 57.02760215 -90.9296875 55.0546875 C-89.0364898 54.14055984 -87.14326208 53.22649433 -85.25 52.3125 C-84.38681152 51.89025146 -83.52362305 51.46800293 -82.63427734 51.03295898 C-81.43085693 50.45396851 -81.43085693 50.45396851 -80.203125 49.86328125 C-79.16140137 49.35728394 -79.16140137 49.35728394 -78.09863281 48.84106445 C-75.75639705 47.90237178 -73.48254261 47.42558647 -71 47 C-71.3327377 49.86075843 -71.53807046 51.53391274 -73.6003418 53.61474609 C-74.29297119 54.07961426 -74.98560059 54.54448242 -75.69921875 55.0234375 C-76.48498291 55.56170166 -77.27074707 56.09996582 -78.08032227 56.65454102 C-78.94069092 57.22229248 -79.80105957 57.79004395 -80.6875 58.375 C-81.57945068 58.98077881 -82.47140137 59.58655762 -83.39038086 60.21069336 C-85.28769939 61.49764639 -87.18928428 62.77832838 -89.09472656 64.05322266 C-91.92601904 65.95042654 -94.74265945 67.86735167 -97.5546875 69.79296875 C-101.23399134 72.31236089 -104.91716942 74.82582485 -108.60546875 77.33203125 C-114.47878843 81.32361794 -120.34451838 85.32624778 -126.19897461 89.34545898 C-130.0197722 91.9678951 -133.84994233 94.57376715 -137.703125 97.1484375 C-138.82098389 97.90108887 -138.82098389 97.90108887 -139.96142578 98.66894531 C-141.3669436 99.61483882 -142.77657403 100.55466002 -144.19091797 101.48730469 C-148.01709195 103.98649271 -148.01709195 103.98649271 -150 108 C-149.30777344 108.3810791 -148.61554688 108.7621582 -147.90234375 109.15478516 C-134.06768007 116.78071061 -120.29716437 124.48489976 -106.69335938 132.51806641 C-102.19248418 135.17020007 -97.71879281 137.75521414 -93 140 C-85.41436245 128.44610278 -77.97100741 116.81301571 -70.66650391 105.0793457 C-65.84490682 97.33791427 -60.96712727 89.63407885 -56.06323242 81.94458008 C-50.83538701 73.74695706 -45.64117304 65.52845906 -40.45458984 57.3046875 C-39.00918211 55.01454836 -37.56159316 52.72580343 -36.11328125 50.4375 C-33.63513444 46.52147246 -31.16117796 42.60282857 -28.69042969 38.68212891 C-27.47045429 36.74644871 -26.24964791 34.81129215 -25.02832031 32.87646484 C-22.95300847 29.58641937 -20.8822963 26.29351755 -18.8125 23 C-17.82189575 21.43149292 -17.82189575 21.43149292 -16.8112793 19.83129883 C-16.19937744 18.85572021 -15.58747559 17.8801416 -14.95703125 16.875 C-14.41022705 16.00617188 -13.86342285 15.13734375 -13.30004883 14.2421875 C-11.87223616 11.95385423 -11.87223616 11.95385423 -11 9 C-14.55975268 9 -17.09591798 9.90083583 -20.48168945 11.02172852 Z M-118 74 C-120.21532047 74.78773035 -120.21532047 74.78773035 -122.71484375 76.0703125 C-123.69912354 76.54887695 -124.68340332 77.02744141 -125.69750977 77.52050781 C-126.76670654 78.04999023 -127.83590332 78.57947266 -128.9375 79.125 C-131.19523439 80.22672258 -133.45304991 81.32827892 -135.7109375 82.4296875 C-137.48742676 83.30125488 -137.48742676 83.30125488 -139.29980469 84.19042969 C-144.93313386 86.95070478 -150.59054861 89.66105509 -156.24539185 92.37689209 C-159.15550257 93.77518018 -162.06403292 95.1767462 -164.97265625 96.578125 C-165.94468994 97.04637695 -166.91672363 97.51462891 -167.91821289 97.99707031 C-168.94869751 98.49352051 -168.94869751 98.49352051 -170 99 C-169.88111835 103.16276918 -169.75683224 107.32533257 -169.62768555 111.48779297 C-169.58455749 112.90181165 -169.54286832 114.31587502 -169.50268555 115.72998047 C-169.4444425 117.7706444 -169.38090859 119.81108795 -169.31640625 121.8515625 C-169.27974854 123.07697754 -169.24309082 124.30239258 -169.20532227 125.56494141 C-169.01327887 128.77784342 -168.5944606 131.83941587 -168 135 C-166.29865862 131.89310301 -165.34860174 128.8970885 -164.4921875 125.46484375 C-164.22792969 124.40845703 -163.96367187 123.35207031 -163.69140625 122.26367188 C-163.42199219 121.16603516 -163.15257812 120.06839844 -162.875 118.9375 C-162.59785156 117.83599609 -162.32070312 116.73449219 -162.03515625 115.59960938 C-160.53039492 109.86536474 -160.53039492 109.86536474 -160 104 C-159.26152832 103.72776611 -158.52305664 103.45553223 -157.76220703 103.17504883 C-155.148135 102.06301695 -153.10850143 100.84445466 -150.8046875 99.19921875 C-150.01481445 98.63992676 -149.22494141 98.08063477 -148.41113281 97.50439453 C-147.57420898 96.90481934 -146.73728516 96.30524414 -145.875 95.6875 C-144.09701084 94.4274583 -142.31834653 93.16836883 -140.5390625 91.91015625 C-139.17442871 90.94360107 -139.17442871 90.94360107 -137.78222656 89.95751953 C-133.30047807 86.80425001 -128.77712497 83.71261843 -124.25 80.625 C-123.42226074 80.05998779 -122.59452148 79.49497559 -121.74169922 78.9128418 C-119.82844573 77.60760859 -117.91459638 76.30326222 -116 75 C-116.66 74.67 -117.32 74.34 -118 74 Z M-156 112 C-157.16806589 116.64223519 -158.32542035 121.28695961 -159.47290039 125.93432617 C-159.86481665 127.51513622 -160.2596575 129.09522417 -160.6574707 130.67456055 C-161.22856547 132.9439671 -161.78911449 135.21575718 -162.34765625 137.48828125 C-162.52780777 138.19463211 -162.70795929 138.90098297 -162.89356995 139.6287384 C-163.69899341 142.94840525 -164.10300569 144.69098293 -163 148 C-162.21238281 147.27296875 -161.42476562 146.5459375 -160.61328125 145.796875 C-152.7421875 138.53125 -144.87109375 131.265625 -137 124 C-138.13648202 120.59055395 -138.53988286 120.39306229 -141.52734375 118.73828125 C-142.23697266 118.34189453 -142.94660156 117.94550781 -143.67773438 117.53710938 C-144.79631836 116.93092773 -144.79631836 116.93092773 -145.9375 116.3125 C-146.67935547 115.89677734 -147.42121094 115.48105469 -148.18554688 115.05273438 C-151.8835576 112.79839511 -151.8835576 112.79839511 -156 112 Z " fill="#241D1F" transform="translate(348,113)"/>
<path d="M0 0 C5.01750915 0.68672311 6.82431442 4.00334642 9.76171875 7.8203125 C21 23.78534031 21 23.78534031 21 28 C22.03640625 27.48308594 23.0728125 26.96617187 24.140625 26.43359375 C25.51011516 25.76760881 26.87992368 25.10227825 28.25 24.4375 C29.27287109 23.92413086 29.27287109 23.92413086 30.31640625 23.40039062 C35.40545108 20.95468461 35.40545108 20.95468461 38.10449219 21.16040039 C40 22 40 22 42 26 C36.39 28.64 30.78 31.28 25 34 C25.72316406 36.38992187 25.72316406 36.38992187 26.4609375 38.828125 C27.09933594 40.96863742 27.7373354 43.10926885 28.375 45.25 C28.69210937 46.29414063 29.00921875 47.33828125 29.3359375 48.4140625 C32.77538399 60.0221944 34 69.75604214 34 82 C44.56 82 55.12 82 66 82 C66 83.98 66 85.96 66 88 C55.44 88 44.88 88 34 88 C34 91.3 34 94.6 34 98 C33.67737529 100.89837649 33.31274947 103.69918283 32.8125 106.5625 C32.68302979 107.32191895 32.55355957 108.08133789 32.42016602 108.86376953 C30.73192791 118.19963955 28.64494628 128.65193986 24 137 C24.54527344 137.15855469 25.09054687 137.31710937 25.65234375 137.48046875 C31.56121247 139.30868283 36.69864172 141.82921124 42 145 C40.68 146.65 39.36 148.3 38 150 C34.21283842 148.49637741 30.44754813 146.94512999 26.6875 145.375 C25.08455078 144.70597656 25.08455078 144.70597656 23.44921875 144.0234375 C22.64097656 143.68570313 21.83273437 143.34796875 21 143 C20.75894531 143.8353125 20.51789063 144.670625 20.26953125 145.53125 C18.81188547 149.51398679 16.8912725 152.89382682 14.6875 156.5 C14.11999023 157.45712891 14.11999023 157.45712891 13.54101562 158.43359375 C7.14582597 169.01649643 7.14582597 169.01649643 2 171.375 C-0.77945241 171.95405259 -3.17318808 172.16628305 -6 172 C-5.21625 171.154375 -4.4325 170.30875 -3.625 169.4375 C3.88763763 160.65788548 10.28917921 150.5373623 15 140 C3.07926144 137.7779325 -8.96893156 136.47046392 -21 135 C-21 147.87 -21 160.74 -21 174 C-22.98 174 -24.96 174 -27 174 C-27 161.13 -27 148.26 -27 135 C-42.05178971 136.45050729 -42.05178971 136.45050729 -56.43359375 139.4140625 C-59 140 -59 140 -63 140 C-58.45209149 148.4852182 -53.97744179 156.55584723 -47.73046875 163.9375 C-45.58009321 166.50047582 -43.78451144 169.17452356 -42 172 C-43.39683082 171.96652475 -44.79280637 171.89668216 -46.1875 171.8125 C-46.96480469 171.77769531 -47.74210937 171.74289062 -48.54296875 171.70703125 C-55.13565199 169.80993162 -58.40403185 162.47248917 -61.6875 156.9375 C-62.17283203 156.13505859 -62.65816406 155.33261719 -63.15820312 154.50585938 C-65.23445506 151.05498546 -67.23450809 147.6219257 -69 144 C-73.85037041 144.73753396 -77.3825636 146.72716656 -81.59765625 149.13671875 C-84 150 -84 150 -86.30859375 149.14453125 C-86.86675781 148.76683594 -87.42492187 148.38914062 -88 148 C-88 146.68 -88 145.36 -88 144 C-85.71070947 142.82845707 -83.41881638 141.66261926 -81.125 140.5 C-80.47402344 140.16613281 -79.82304687 139.83226562 -79.15234375 139.48828125 C-74.2265625 137 -74.2265625 137 -72 137 C-72.59748047 135.22109375 -72.59748047 135.22109375 -73.20703125 133.40625 C-78.1443844 118.43391719 -80.78101992 104.84674103 -82 89 C-92.23 88.67 -102.46 88.34 -113 88 C-113 86.02 -113 84.04 -113 82 C-102.77 82 -92.54 82 -82 82 C-81.7525 78.844375 -81.505 75.68875 -81.25 72.4375 C-80.45396205 63.49829382 -79.47409824 54.35761711 -76 46 C-73 45 -73 45 -70.8125 45.9375 C-70.214375 46.288125 -69.61625 46.63875 -69 47 C-69.14622803 47.70495605 -69.29245605 48.40991211 -69.44311523 49.13623047 C-70.11315186 52.38142967 -70.77536746 55.62817927 -71.4375 58.875 C-71.66759766 59.98359375 -71.89769531 61.0921875 -72.13476562 62.234375 C-72.35712891 63.33007812 -72.57949219 64.42578125 -72.80859375 65.5546875 C-73.01282959 66.54968262 -73.21706543 67.54467773 -73.42749023 68.56982422 C-74.1695133 73.01563404 -74.55150612 77.51506116 -75 82 C-59.16 82 -43.32 82 -27 82 C-27 68.47 -27 54.94 -27 41 C-26.34 41 -25.68 41 -25 41 C-24.690625 40.21625 -24.38125 39.4325 -24.0625 38.625 C-23 36 -23 36 -22 34 C-21.34 34 -20.68 34 -20 34 C-20 34.66 -20 35.32 -20 36 C-16.33230608 35.54966061 -12.66608107 35.08827148 -9 34.625 C-7.97003906 34.49867188 -6.94007813 34.37234375 -5.87890625 34.2421875 C-1.34984475 33.66523699 3.08028199 33.06076594 7.5 31.8984375 C11 31 11 31 15 31 C11.36249957 23.75457232 7.16126198 17.17994682 2.34033203 10.68505859 C0.45145216 8.12454461 -0.98605026 6.04184923 -2 3 C-1.34 2.01 -0.68 1.02 0 0 Z M5.15039062 38.40234375 C-3.26252 40.24758004 -11.28512808 40.97472095 -20 42 C-20 55.2 -20 68.4 -20 82 C-3.83 82 12.34 82 29 82 C27.75022114 67.37516319 27.75022114 67.37516319 24.625 53.375 C24.40948486 52.63846191 24.19396973 51.90192383 23.97192383 51.14306641 C22.39008874 45.88347928 20.45927299 40.91854599 18 36 C13.70883392 36 9.33125771 37.43835219 5.15039062 38.40234375 Z M-20 88 C-20 101.53 -20 115.06 -20 129 C-16.16375 129.433125 -12.3275 129.86625 -8.375 130.3125 C0.89436763 131.39225102 9.94104524 132.71500426 19 135 C25.60096882 120.3936009 29 103.98768099 29 88 C12.83 88 -3.34 88 -20 88 Z M-75 89 C-75 95.08745891 -74.87112092 100.52035427 -73.875 106.4375 C-73.74738281 107.19667725 -73.61976563 107.95585449 -73.48828125 108.73803711 C-72.41050859 114.65182911 -70.85851402 120.34846015 -69 126.0625 C-68.62657471 127.23220337 -68.62657471 127.23220337 -68.24560547 128.42553711 C-67.59521422 130.32027548 -66.8081291 132.16697801 -66 134 C-61.47946567 135.50684478 -57.41311556 133.81572651 -52.921875 132.64648438 C-43.8982177 130.46156036 -35.53574884 130.00376304 -26 129 C-26 115.8 -26 102.6 -26 89 C-42.17 89 -58.34 89 -75 89 Z " fill="#251E1F" transform="translate(300,209)"/>
<path d="M0 0 C26.72226675 8.19373048 47.80472118 26.40367946 61.00683594 51.02050781 C73.7556583 76.43040252 75.35139062 105.56512059 66.671875 132.48828125 C62.18813389 145.24559227 55.26495035 157.15977496 46 167 C45.34741211 167.71978027 45.34741211 167.71978027 44.68164062 168.45410156 C28.1279303 186.65384373 4.13319049 199.90070787 -20.78710938 201.13842773 C-54.07575224 202.18703024 -78.90179737 194.28550637 -104.1171875 172.140625 C-120.75086859 156.50897289 -132.27890453 132.79827913 -134 110 C-134.20077081 102.66714926 -134.12725078 95.33356014 -134 88 C-132.02 88.33 -130.04 88.66 -128 89 C-127.9906543 89.57741943 -127.98130859 90.15483887 -127.97167969 90.74975586 C-127.36991778 120.53402052 -119.76411926 145.74887306 -98.44140625 167.625 C-78.17664417 186.91917116 -53.224717 194.52484572 -25.84375 194.2109375 C-0.46014423 193.55109409 21.48766031 181.73215985 39 164 C39.68707031 163.31164062 40.37414062 162.62328125 41.08203125 161.9140625 C55.48047136 146.5080566 64.14099664 124.02690836 65 103 C65.03996094 102.32582031 65.07992187 101.65164063 65.12109375 100.95703125 C65.93393566 75.47204674 56.02958862 50.72193347 39 32 C27.24740014 19.71161985 13.06656656 11.35552219 -3 6 C-1.125 1.125 -1.125 1.125 0 0 Z " fill="#241E1F" transform="translate(308,196)"/>
<path d="M0 0 C2.21278764 1.83127253 3.39501792 3.56664007 5 6 C5.4846875 5.57847656 5.969375 5.15695312 6.46875 4.72265625 C11.37286379 0.71448632 14.60139435 -1.10320332 21 -1 C25.68428258 0.44131772 27.84345111 2.53203763 30.17956543 6.8208313 C31.80746173 11.14471134 31.48349565 15.62303337 31.390625 20.18359375 C31.38496521 21.23909927 31.37930542 22.2946048 31.37347412 23.38209534 C31.35118595 26.73436939 31.30100215 30.08555212 31.25 33.4375 C31.2299253 35.71808346 31.21167623 37.99868377 31.1953125 40.27929688 C31.15134568 45.85328141 31.08236921 51.42645603 31 57 C26.71 57 22.42 57 18 57 C17.97494385 55.74864258 17.9498877 54.49728516 17.92407227 53.20800781 C17.82987437 48.56369857 17.72968381 43.91953457 17.62768555 39.27539062 C17.58438356 37.26565957 17.54270512 35.25589285 17.50268555 33.24609375 C17.44486835 30.35666152 17.38120676 27.46740802 17.31640625 24.578125 C17.29969376 23.68007141 17.28298126 22.78201782 17.26576233 21.85675049 C17.2358445 20.5958963 17.2358445 20.5958963 17.20532227 19.30957031 C17.18200584 18.20370575 17.18200584 18.20370575 17.15821838 17.07550049 C16.99640852 14.95288714 16.57589852 13.04586744 16 11 C13.21976069 11.30056641 11.47779384 11.57304439 9.36401367 13.46191406 C7.28702198 17.32667254 7.51982347 21.03433702 7.48828125 25.359375 C7.47033005 26.26375305 7.45237885 27.1681311 7.43388367 28.09991455 C7.37978143 30.9832292 7.34588526 33.86637832 7.3125 36.75 C7.27932685 38.70705428 7.24483719 40.66408672 7.20898438 42.62109375 C7.12405496 47.41394307 7.0572433 52.20674329 7 57 C2.38 57 -2.24 57 -7 57 C-7.33 42.15 -7.66 27.3 -8 12 C-9.32 11.67 -10.64 11.34 -12 11 C-16.25224992 15.18419025 -17.5728922 17.82721279 -17.71894836 23.77841187 C-17.71304939 25.04438705 -17.71304939 25.04438705 -17.70703125 26.3359375 C-17.72215256 27.21528961 -17.73727386 28.09464172 -17.75285339 29.00064087 C-17.79563076 31.79235679 -17.80455858 34.5829894 -17.8125 37.375 C-17.83565211 39.27476818 -17.86101893 41.17451075 -17.88867188 43.07421875 C-17.95142567 47.71624118 -17.98383871 52.35759101 -18 57 C-22.29 57 -26.58 57 -31 57 C-31 38.52 -31 20.04 -31 1 C-27.04 1 -23.08 1 -19 1 C-19 2.32 -19 3.64 -19 5 C-18.52949219 4.65066406 -18.05898437 4.30132812 -17.57421875 3.94140625 C-16.95160156 3.48636719 -16.32898437 3.03132813 -15.6875 2.5625 C-15.07261719 2.11003906 -14.45773437 1.65757812 -13.82421875 1.19140625 C-9.42470656 -1.68193683 -4.89365905 -1.43981562 0 0 Z " fill="#000000" transform="translate(1381,394)"/>
<path d="M0 0 C0 4.62 0 9.24 0 14 C3.63 14 7.26 14 11 14 C10.125 22.875 10.125 22.875 9 24 C7.48071962 24.07179964 5.95832518 24.08392007 4.4375 24.0625 C3.61121094 24.05347656 2.78492188 24.04445313 1.93359375 24.03515625 C0.97646484 24.01775391 0.97646484 24.01775391 0 24 C0.11811981 28.66326382 0.24235866 33.3263088 0.37231445 37.98925781 C0.41567241 39.57612657 0.45734687 41.16304224 0.49731445 42.75 C0.55499632 45.02878979 0.61869638 47.30734322 0.68359375 49.5859375 C0.70030624 50.29744965 0.71701874 51.00896179 0.73423767 51.74203491 C0.79721937 55.49660817 0.79721937 55.49660817 2 59 C4.64 58.67 7.28 58.34 10 58 C14 64.625 14 64.625 14 68 C8.45016984 71.69988677 2.5303727 71.896498 -4 71 C-8.0399153 68.95981387 -10.5180888 66.81150648 -13 63 C-14.03531188 58.4003829 -14.13270693 53.88704236 -14.09765625 49.1953125 C-14.0962413 48.4713327 -14.09482635 47.74735291 -14.09336853 47.00143433 C-14.08781075 44.70924593 -14.07526633 42.41715843 -14.0625 40.125 C-14.05747953 38.56250142 -14.05291759 37.00000129 -14.04882812 35.4375 C-14.03785519 31.62496165 -14.0206201 27.81249788 -14 24 C-16.91652174 23.83318891 -16.91652174 23.83318891 -20 24 C-20.66 24.66 -21.32 25.32 -22 26 C-23.670625 26.12375 -23.670625 26.12375 -25.375 26.25 C-29.21569627 26.65026878 -29.21569627 26.65026878 -31.375 29.875 C-33.83707407 34.60975783 -34.19638979 38.50091132 -34.31640625 43.73046875 C-34.33718735 44.48088943 -34.35796844 45.23131012 -34.37937927 46.00447083 C-34.44469926 48.39872184 -34.50367792 50.79308139 -34.5625 53.1875 C-34.60570193 54.81186013 -34.64931676 56.43620933 -34.69335938 58.06054688 C-34.80036263 62.04025371 -34.90167937 66.02006958 -35 70 C-39.62 70 -44.24 70 -49 70 C-49 51.52 -49 33.04 -49 14 C-45.04 14 -41.08 14 -37 14 C-36.34 15.32 -35.68 16.64 -35 18 C-34.34 17.195625 -33.68 16.39125 -33 15.5625 C-29.41881225 12.5035688 -26.58778961 11.81548195 -22 12 C-19.23172006 12.4810299 -16.69848362 13.18081747 -14 14 C-14.01160156 13.14535156 -14.02320313 12.29070312 -14.03515625 11.41015625 C-14.04417969 10.30542969 -14.05320312 9.20070313 -14.0625 8.0625 C-14.07410156 6.96035156 -14.08570313 5.85820312 -14.09765625 4.72265625 C-14 2 -14 2 -13 1 C-8.53288688 0.32993303 -4.54017227 0 0 0 Z " fill="#000000" transform="translate(1519,381)"/>
<path d="M0 0 C2.5 2.75 2.5 2.75 4 5 C2.02 7.31 0.04 9.62 -2 12 C-4.88169639 10.86478627 -7.65320753 9.67933449 -10.4375 8.3125 C-14.33236139 6.87755107 -16.11418898 6.58697781 -20 8 C-22.47388373 10.79309453 -23 12.33067493 -23 16.0625 C-21.39685262 20.77174542 -18.04145732 22.48296445 -13.6953125 24.640625 C-11.92800781 25.43726563 -11.92800781 25.43726563 -10.125 26.25 C-4.11504795 29.09389018 0.40497184 32.31713761 4 38 C5.19104332 41.57312995 5.20528823 44.54553322 5.25 48.3125 C5.27578125 49.60800781 5.3015625 50.90351563 5.328125 52.23828125 C4.76025158 58.74854443 1.92081884 62.84464187 -3 67 C-8.83138731 71.44227272 -14.99031794 71.70649205 -22.15625 71.52734375 C-29.30113273 70.54710069 -36.1195942 67.41725044 -41 62 C-39.4169423 57.7257442 -36.49431596 55.73468206 -33 53 C-32.52949219 53.34933594 -32.05898437 53.69867188 -31.57421875 54.05859375 C-30.64029297 54.74115234 -30.64029297 54.74115234 -29.6875 55.4375 C-28.76517578 56.11619141 -28.76517578 56.11619141 -27.82421875 56.80859375 C-23.97454094 59.32283729 -20.47650564 59.23560556 -16 59 C-13.04953636 58.12283513 -12.27446995 57.45744992 -10.6875 54.8125 C-9.7816433 51.10672258 -10.01230653 48.68738897 -11 45 C-14.50345632 40.86656437 -17.95534002 38.85667174 -22.875 36.6875 C-28.90844526 33.87656137 -33.4004435 30.69002058 -37 25 C-38.91923356 19.24229932 -39.18227905 12.25126739 -37.09375 6.5078125 C-33.73555166 0.80318071 -29.5438605 -2.09455813 -23.3125 -4.3125 C-15.25090096 -6.02347035 -6.75824956 -4.83413616 0 0 Z " fill="#000000" transform="translate(1337,381)"/>
<path d="M0 0 C4.95 0 9.9 0 15 0 C17.64 13.53 20.28 27.06 23 41 C25.97 27.47 28.94 13.94 32 0 C36.62 0 41.24 0 46 0 C44.62415002 7.19058557 42.98710265 14.26146126 41.13671875 21.34375 C40.86285843 22.39348999 40.58899811 23.44322998 40.30683899 24.52478027 C39.72950523 26.73035858 39.15039275 28.93547199 38.56958008 31.14013672 C37.69064208 34.48803175 36.82675684 37.83959549 35.96289062 41.19140625 C35.39676307 43.3465986 34.82973549 45.50155478 34.26171875 47.65625 C33.88330086 49.13949768 33.88330086 49.13949768 33.49723816 50.65270996 C30.90991447 60.33064021 27.70225151 69.35378542 19 75 C14.71959018 77.45260955 10.96071728 78.36297931 6 78 C4 71.375 4 71.375 4 68 C5.4562545 67.32880451 6.91507867 66.66318193 8.375 66 C9.18710938 65.62875 9.99921875 65.2575 10.8359375 64.875 C13 64 13 64 15 64 C15.4640625 62.824375 15.4640625 62.824375 15.9375 61.625 C17 59 17 59 18 57 C16.68 56.67 15.36 56.34 14 56 C9.38 37.52 4.76 19.04 0 0 Z " fill="#000000" transform="translate(1557,395)"/>
<path d="M0 0 C4.98620524 4.73050241 6.18823504 10.29082557 6.37905884 17.01608276 C6.39061005 17.75069733 6.40216125 18.48531189 6.4140625 19.2421875 C6.43342865 20.01055939 6.4527948 20.77893127 6.4727478 21.57058716 C6.53214117 24.00528138 6.57876628 26.44002393 6.625 28.875 C6.66321693 30.53387386 6.70227079 32.19272867 6.7421875 33.8515625 C6.83780907 37.90088542 6.92198701 41.95030113 7 46 C7.66 46 8.32 46 9 46 C8.34 49.3 7.68 52.6 7 56 C-0.74468085 55.25531915 -0.74468085 55.25531915 -4 52 C-4 51.34 -4 50.68 -4 50 C-4.928125 50.804375 -5.85625 51.60875 -6.8125 52.4375 C-11.27677942 56.30654216 -15.54816679 56.34171356 -21.26953125 56.28125 C-26.12278626 55.7813439 -28.69505907 53.48493278 -31.8125 49.9375 C-34.58910895 43.06904629 -34.80433142 35.84698536 -32.07421875 28.94140625 C-29.65316146 24.56589545 -26.38105375 22.55773325 -21.75 20.6875 C-17.11445335 19.83764978 -12.69659878 19.82990186 -8 20 C-8.11409593 18.54077307 -8.24165544 17.08259402 -8.375 15.625 C-8.44460938 14.81289063 -8.51421875 14.00078125 -8.5859375 13.1640625 C-8.82892588 10.79665809 -8.82892588 10.79665809 -11 9 C-16.63071134 8.31076355 -22.42401662 9.18894787 -28 10 C-29.87125129 6.14742381 -29.99030231 4.12048864 -29 0 C-18.75721225 -2.86798057 -9.9718979 -4.91710942 0 0 Z M-17.375 29.9375 C-19.98585457 33.25127695 -20.21776916 36.85512692 -20 41 C-18.74018903 43.99912109 -18.74018903 43.99912109 -17 46 C-12.72722204 45.6844092 -12.72722204 45.6844092 -9.3125 43.34375 C-7.61433243 40.3113079 -7.69991511 38.20260328 -7.8125 34.75 C-7.83957031 33.67234375 -7.86664062 32.5946875 -7.89453125 31.484375 C-7.92933594 30.66453125 -7.96414063 29.8446875 -8 29 C-11.40764114 28.80340532 -14.17210892 28.67320089 -17.375 29.9375 Z " fill="#000000" transform="translate(1453,396)"/>
<path d="M0 0 C3.95602431 3.59281612 5.89941338 7.02165508 6.17358398 12.4140625 C6.20181006 13.81763263 6.22570957 15.22129409 6.24609375 16.625 C6.27902014 18.15104766 6.31223198 19.67708919 6.34570312 21.203125 C6.39318163 23.60607861 6.43764674 26.00900521 6.47680664 28.41210938 C6.5164917 30.73332909 6.56802907 33.05405304 6.62109375 35.375 C6.6295079 36.09381348 6.63792206 36.81262695 6.64659119 37.55322266 C6.73785409 41.23179434 6.90530685 42.85796028 9 46 C9.02048149 49.44771821 8.55037297 52.89925406 7 56 C1.71201818 55.58525633 -1.11690718 54.64775386 -5 51 C-6.175625 51.9590625 -6.175625 51.9590625 -7.375 52.9375 C-12.33280448 56.8329178 -16.85494257 56.48982342 -23 56 C-27.20261675 54.30106982 -29.41945133 51.6864981 -32 48 C-33.95946946 42.12159161 -33.79330377 35.42398374 -31.875 29.5625 C-27.85077063 24.06271987 -23.70152436 21.2286128 -17 20 C-13.64625719 19.85760096 -10.3601688 19.90794058 -7 20 C-7.66 16.37 -8.32 12.74 -9 9 C-15.14252407 8.92416637 -20.95210034 8.92481784 -27 10 C-27.99 7.03 -28.98 4.06 -30 1 C-20.19536988 -2.82214395 -9.7411495 -5.73008794 0 0 Z M-17.5 30.375 C-19.77475438 34.35582016 -19.83019442 38.51994184 -19 43 C-17.72712448 44.85204285 -17.72712448 44.85204285 -16 46 C-12.67464286 46 -11.26696815 45.21646066 -8.6875 43.125 C-6.19170036 38.50314881 -6.67555038 34.14613143 -7 29 C-12.49096891 28.54718916 -12.49096891 28.54718916 -17.5 30.375 Z " fill="#000000" transform="translate(1145,396)"/>
<path d="M0 0 C5.67223821 4.60949381 7.54888686 9.98628647 9 17 C9 21.62 9 26.24 9 31 C-0.24 31.33 -9.48 31.66 -19 32 C-17.93314074 40.60373476 -17.93314074 40.60373476 -14 44 C-8.42197372 45.06546569 -4.7261164 43.97070174 0 41 C2.71670353 41.7191274 3.86714291 42.86256163 5.8125 44.875 C7 47 7 47 6.83984375 48.9609375 C5.36759432 52.53542215 2.39337078 53.45227971 -0.9765625 55.01171875 C-7.65869311 57.1959294 -15.01827939 57.27342978 -21.5 54.375 C-26.96656249 51.08355396 -30.4174764 46.44268521 -32.43359375 40.3828125 C-35.10177192 29.15806295 -34.96285932 16.66366813 -29.25 6.4375 C-26.18112922 1.82670878 -23.29794226 -0.68082309 -18.125 -2.75 C-11.53038295 -3.5258373 -5.83838045 -3.38456837 0 0 Z M-16.125 8.3125 C-19.07938351 12.54711636 -19.27437493 16.92062453 -20 22 C-14.72 22 -9.44 22 -4 22 C-4.2475 20.081875 -4.495 18.16375 -4.75 16.1875 C-4.95882813 14.56908203 -4.95882813 14.56908203 -5.171875 12.91796875 C-5.76775792 9.94184149 -5.76775792 9.94184149 -7.828125 8.11328125 C-10.95331473 6.51134047 -13.12218428 6.4578197 -16.125 8.3125 Z " fill="#000000" transform="translate(1238,396)"/>
<path d="M0 0 C15.18 0 30.36 0 46 0 C45 9 45 9 44 11 C39.05 11 34.1 11 29 11 C29 31.46 29 51.92 29 73 C24.38 73 19.76 73 15 73 C15 52.54 15 32.08 15 11 C10.05 11 5.1 11 0 11 C0 7.37 0 3.74 0 0 Z " fill="#000000" transform="translate(1030,378)"/>
<path d="M0 0 C4.62 0 9.24 0 14 0 C14.95919586 4.45814932 15.91738261 8.9165116 16.875 13.375 C17.14441406 14.62667969 17.41382813 15.87835938 17.69140625 17.16796875 C19.17989158 24.1021321 20.63723855 31.03996497 22 38 C23.57886067 33.52958607 24.73829715 29.0441125 25.7265625 24.4140625 C25.87910492 23.71227875 26.03164734 23.010495 26.18881226 22.28744507 C26.67065283 20.06729027 27.14789748 17.84617727 27.625 15.625 C27.95282064 14.11061117 28.28094266 12.59628754 28.609375 11.08203125 C29.41030055 7.38887454 30.20499079 3.69445456 31 0 C35.62 0 40.24 0 45 0 C42.34968968 11.53917273 39.49977729 23.01472317 36.48071289 34.46289062 C35.79872306 37.05230908 35.12289524 39.64329062 34.44726562 42.234375 C34.01338671 43.88551285 33.57915604 45.53655832 33.14453125 47.1875 C32.94350296 47.9602124 32.74247467 48.7329248 32.53535461 49.52905273 C31.11461312 54.88538688 31.11461312 54.88538688 30 56 C27.30345146 56.07319621 24.63308542 56.09242537 21.9375 56.0625 C20.79958008 56.05573242 20.79958008 56.05573242 19.63867188 56.04882812 C17.75908129 56.0370068 15.87953101 56.01907078 14 56 C11.99913594 48.66954912 10.0061127 41.33699943 8.01855469 34.00292969 C7.34132834 31.50764605 6.66230123 29.01285042 5.98144531 26.51855469 C5.00373314 22.93551035 4.0324871 19.35076723 3.0625 15.765625 C2.75626709 14.64883362 2.45003418 13.53204224 2.13452148 12.38140869 C1.85423096 11.34063171 1.57394043 10.29985474 1.28515625 9.22753906 C1.03644775 8.31264709 0.78773926 7.39775513 0.53149414 6.45513916 C0 4 0 4 0 0 Z " fill="#000000" transform="translate(1157,395)"/>
<path d="M0 0 C0.33 22.77 0.66 45.54 1 69 C2.32 69.33 3.64 69.66 5 70 C5.66 72.97 6.32 75.94 7 79 C2.54422653 81.97051564 -1.77442606 81.62737491 -7 81 C-10.67076387 78.90242065 -12.48367541 76.89669254 -14 73 C-14.24050903 69.82354736 -14.24050903 69.82354736 -14.22705078 66.02832031 C-14.22734283 65.3352327 -14.22763489 64.64214508 -14.22793579 63.92805481 C-14.22654608 61.64461608 -14.21100206 59.3615065 -14.1953125 57.078125 C-14.19158109 55.49200621 -14.18873472 53.90588511 -14.18673706 52.31976318 C-14.17911068 48.15059007 -14.15947078 43.98155689 -14.1373291 39.81243896 C-14.11684921 35.55596815 -14.10773076 31.29947466 -14.09765625 27.04296875 C-14.07622391 18.69524837 -14.04210002 10.34764161 -14 2 C-11.75135208 0.87567604 -10.05612337 0.69546104 -7.5625 0.4375 C-6.78003906 0.35371094 -5.99757813 0.26992188 -5.19140625 0.18359375 C-3 0 -3 0 0 0 Z " fill="#000000" transform="translate(1551,371)"/>
<path d="M0 0 C0.33 23.1 0.66 46.2 1 70 C2.65 70.33 4.3 70.66 6 71 C6.66 73.64 7.32 76.28 8 79 C3.5424425 81.971705 -0.77413182 81.75294249 -6 81 C-9.17568542 79.34766078 -11.37696485 77.24607029 -13 74 C-13.09722624 71.72815153 -13.12797184 69.45337089 -13.12939453 67.17944336 C-13.13202301 66.1280291 -13.13202301 66.1280291 -13.13470459 65.05537415 C-13.13911366 62.73350566 -13.13618875 60.41171304 -13.1328125 58.08984375 C-13.13348573 56.4808399 -13.13445592 54.87183614 -13.13571167 53.26283264 C-13.1371873 49.88932325 -13.13503812 46.51584031 -13.13037109 43.14233398 C-13.12466931 38.80867124 -13.1279565 34.47507036 -13.13394356 30.14140987 C-13.13754891 26.81897003 -13.13641079 23.49654497 -13.13381577 20.17410469 C-13.13314666 18.57563838 -13.13397435 16.97717074 -13.13629532 15.37870598 C-13.13882191 13.14948825 -13.1349814 10.92037222 -13.12939453 8.69116211 C-13.12859894 7.42034286 -13.12780334 6.14952362 -13.12698364 4.8401947 C-13 2 -13 2 -12 1 C-10.54843703 0.76578366 -9.08775657 0.58661596 -7.625 0.4375 C-6.83351563 0.35371094 -6.04203125 0.26992188 -5.2265625 0.18359375 C-3 0 -3 0 0 0 Z " fill="#000000" transform="translate(1268,371)"/>
<path d="M0 0 C-0.14084796 1.79206547 -0.28783701 3.58364917 -0.4375 5.375 C-0.51871094 6.37273437 -0.59992188 7.37046875 -0.68359375 8.3984375 C-1 11 -1 11 -2 13 C-3.093125 13.103125 -4.18625 13.20625 -5.3125 13.3125 C-9.10824566 13.66053571 -9.10824566 13.66053571 -11.375 16.375 C-14.10535813 20.78557852 -14.18697371 24.65985367 -14.28125 29.6953125 C-14.29965942 30.44336151 -14.31806885 31.19141052 -14.33703613 31.96212769 C-14.41571069 35.1622695 -14.48366212 38.3626167 -14.55224609 41.56298828 C-14.60383909 43.89887324 -14.66112016 46.23456997 -14.71875 48.5703125 C-14.73232544 49.29944855 -14.74590088 50.02858459 -14.7598877 50.77981567 C-14.88714351 55.88714351 -14.88714351 55.88714351 -16 57 C-20.29 57 -24.58 57 -29 57 C-29 38.52 -29 20.04 -29 1 C-25.04 1 -21.08 1 -17 1 C-16.67 2.65 -16.34 4.3 -16 6 C-15.2575 5.21625 -14.515 4.4325 -13.75 3.625 C-8.86766473 -1.03541094 -6.69794755 -1.28806684 0 0 Z " fill="#000000" transform="translate(1110,394)"/>
<path d="M0 0 C9.57 0 19.14 0 29 0 C29 9.24 29 18.48 29 28 C19.43 28 9.86 28 0 28 C0 18.76 0 9.52 0 0 Z " fill="#000000" transform="translate(1572,37)"/>
<path d="M0 0 C9.57 0 19.14 0 29 0 C29 9.24 29 18.48 29 28 C19.43 28 9.86 28 0 28 C0 18.76 0 9.52 0 0 Z " fill="#000000" transform="translate(1049,37)"/>
</svg>
